<svg xmlns="http://www.w3.org/2000/svg" id="message-sent" viewBox="0 0 650 512">
  <defs>
    <clipPath id="clip-path">
      <rect width="97.202" height="94.92" x="385.323" y="232.231" fill="none" transform="rotate(-51.425 433.924 279.691)"></rect>
    </clipPath>
  </defs>
  <circle cx="317.486" cy="256" r="167.695" fill="#dbe8ec"></circle>
  <path fill="#dbe8ec" d="M544.58343,220.90338V202.7937a13.02087,13.02087,0,0,0-13.02086-13.02087H485.60333A13.02086,13.02086,0,0,1,472.58247,176.752V158.64229a13.02087,13.02087,0,0,1,13.02086-13.02087h1.45112a13.02087,13.02087,0,0,0,13.02086-13.02087V114.49087A13.02087,13.02087,0,0,0,487.05445,101.47H173.13523a13.02087,13.02087,0,0,0-13.02087,13.02087v18.10968a13.02087,13.02087,0,0,0,13.02087,13.02087h0a13.02087,13.02087,0,0,1,13.02086,13.02087V176.752a13.02086,13.02086,0,0,1-13.02086,13.02086H122.7824a13.02087,13.02087,0,0,0-13.02087,13.02087v18.10968a13.02087,13.02087,0,0,0,13.02087,13.02087h19.75769A13.02087,13.02087,0,0,1,155.561,246.94512v18.10976a13.02087,13.02087,0,0,1-13.02086,13.02087h-.04775a13.02087,13.02087,0,0,0-13.02087,13.02087v18.10959a13.02087,13.02087,0,0,0,13.02087,13.02087h2.85852A13.02087,13.02087,0,0,1,158.37173,335.248v18.10976a13.02087,13.02087,0,0,1-13.02087,13.02087H118.43743a13.02087,13.02087,0,0,0-13.02086,13.02087v18.10968A13.02087,13.02087,0,0,0,118.43743,410.53H494.045a13.02087,13.02087,0,0,0,13.02087-13.02087V379.39945A13.02087,13.02087,0,0,0,494.045,366.37858H482.75526a13.02087,13.02087,0,0,1-13.02087-13.02087V335.248a13.02087,13.02087,0,0,1,13.02087-13.02087h26.62008a13.02087,13.02087,0,0,0,13.02087-13.02087V291.09662a13.02087,13.02087,0,0,0-13.02087-13.02087h-8.07529a13.02087,13.02087,0,0,1-13.02087-13.02087V246.94512a13.02087,13.02087,0,0,1,13.02087-13.02087h30.26252A13.02087,13.02087,0,0,0,544.58343,220.90338Z"></path>
  <line x1="374.775" x2="407.077" y1="92.159" y2="92.159" fill="none" stroke="#3086a3" stroke-linecap="round" stroke-miterlimit="10" stroke-width="3"></line>
  <line x1="374.775" x2="407.077" y1="101.47" y2="101.47" fill="none" stroke="#3086a3" stroke-linecap="round" stroke-miterlimit="10" stroke-width="3"></line>
  <line x1="374.775" x2="407.077" y1="110.781" y2="110.781" fill="none" stroke="#3086a3" stroke-linecap="round" stroke-miterlimit="10" stroke-width="3"></line>
  <line x1="124.013" x2="156.315" y1="289.908" y2="289.908" fill="none" stroke="#3086a3" stroke-linecap="round" stroke-miterlimit="10" stroke-width="3"></line>
  <line x1="124.013" x2="156.315" y1="299.218" y2="299.218" fill="none" stroke="#3086a3" stroke-linecap="round" stroke-miterlimit="10" stroke-width="3"></line>
  <line x1="124.013" x2="156.315" y1="308.529" y2="308.529" fill="none" stroke="#3086a3" stroke-linecap="round" stroke-miterlimit="10" stroke-width="3"></line>
  <line x1="485.181" x2="517.484" y1="377.636" y2="377.636" fill="none" stroke="#3086a3" stroke-linecap="round" stroke-miterlimit="10" stroke-width="3"></line>
  <line x1="485.181" x2="517.484" y1="386.947" y2="386.947" fill="none" stroke="#3086a3" stroke-linecap="round" stroke-miterlimit="10" stroke-width="3"></line>
  <line x1="485.181" x2="517.484" y1="396.257" y2="396.257" fill="none" stroke="#3086a3" stroke-linecap="round" stroke-miterlimit="10" stroke-width="3"></line>
  <circle cx="494.056" cy="181.612" r="13.807" fill="#b9d4db"></circle>
  <circle cx="472.969" cy="212.953" r="7.159" fill="#b9d4db"></circle>
  <circle cx="458.166" cy="167.948" r="10.228" fill="#b9d4db"></circle>
  <circle cx="227.576" cy="369.209" r="16.428" fill="#b9d4db"></circle>
  <circle cx="195.092" cy="377.405" r="8.557" fill="#b9d4db"></circle>
  <circle cx="185.043" cy="348.999" r="4.936" fill="#b9d4db"></circle>
  <circle cx="209.517" cy="336.356" r="11.833" fill="#b9d4db"></circle>
  <circle cx="232.543" cy="139.524" r="16.428" fill="#b9d4db"></circle>
  <circle cx="233.209" cy="106.029" r="8.557" fill="#b9d4db"></circle>
  <circle cx="290.204" cy="111.029" r="7.406" fill="#b9d4db"></circle>
  <circle cx="263.26" cy="103.832" r="4.936" fill="#b9d4db"></circle>
  <circle cx="268.996" cy="130.775" r="11.833" fill="#b9d4db"></circle>
  <circle cx="325.924" cy="256" r="108" fill="#ee781d"></circle>
  <path fill="#e06714" d="M330.00405 173.44c-1.95 3.35-5.43018 9.31-12 11.52-5.84009 1.96-9.64014-.56-18.72.48-5.49.63-8.94019 1.02-12.48 3.36-5.14014 3.4-4.83008 7.13-8.64014 11.04-8.22 8.44-23.62988 5.46-24.48 5.28a33.08669 33.08669 0 0 1-17.06006-9.87A107.858 107.858 0 0 1 325.924 148c2.7 0 5.39014.1 8.04.29C335.02407 154.88 335.194 164.55 330.00405 173.44ZM296.88393 215.2c7.53955-9.321 15.29981-18.9151 24.96-17.76 7.6167.91083 14.70288 8.29956 16.32007 15.84 2.01978 9.41754-5.63452 13.74237-2.87988 22.56 1.873 5.99591 5.76831 5.13556 11.52 13.92 2.717 4.14978 7.30542 11.15711 6.72 20.16-.134 2.05945-1.22461 14.77466-12 20.16-7.08154 3.53918-15.949 2.7146-21.6001-1.44006-6.52783-4.79932-4.43115-10.85645-10.56006-13.91993-5.58789-2.793-8.84106 1.48706-18.24-.4801-3.4646-.7251-9.85937-2.06348-12.96-6.72-4.25928-6.39673-.12475-15.786 6.24-30.24C287.98916 229.138 290.83242 222.6816 296.88393 215.2ZM433.924 256a108.53078 108.53078 0 0 1-3.40991 27.04c-9.92993 2.34-21.63013 1.93994-30.90991-4-2.74024-1.75-9.74024-6.23-11.52-13.92-1.34009-5.79993 1.57983-7.82 1.91992-18.24.1499-4.73.3501-10.83-2.3999-17.28-3.21021-7.53-7.11011-7.7-9.6001-13.44-3.72-8.57.06006-19.43 4.31982-25.44 4.54-6.4 11.59009-10.04 19.30005-11.74A107.61209 107.61209 0 0 1 433.924 256ZM359.76406 315.04c-2.32056-3.82971-1.67139-10.24573 1.43994-12.48 2.856-2.0509 6.15259.59534 10.08008-1.92 2.87939-1.84412 2.26758-4.0094 4.8-5.28 3.49414-1.75306 9.25488.06311 12 3.84008 3.53491 4.86341 1.36279 12.00452-1.92017 15.84C379.50527 322.81942 363.98745 322.00985 359.76406 315.04ZM327.78408 363.96993q-.93018.03-1.86011.03A107.86281 107.86281 0 0 1 237.52407 318.05a32.588 32.588 0 0 1 6.56006-10.68994c.87988-.95007 11.87988-12.42017 24.96-9.6001a25.70031 25.70031 0 0 1 12 6.72c4.22 4.3 3.22 6.71 6.72 9.6001 4.59009 3.78992 8.54 1.48 18.24 3.35986C311.484 318.5 319.194 320 324.244 325.60006c5.17993 5.74 5.23 13.2 5.28 20.63989C329.5541 349.83 329.60415 357.26 327.78408 363.96993Z"></path>
  <path fill="#25788e" d="m430.50452 230.04168 5.96551.6648a.10207.10207 0 0 1-.02258.20288l-.00458-.00061ZM448.1438 232.206l11.62884 1.85266a.454.454 0 1 1-.14288.89661l-.0094-.00159-.01556-.00293-11.55542-2.148-.0083-.00146a.30209.30209 0 0 1 .10272-.59534ZM471.34265 236.299l11.475 2.76111a.75213.75213 0 1 1-.35193 1.46252l-.015-.00378-.045-.012-11.33075-3.032-.02917-.00781a.60265.60265 0 0 1 .29681-1.16809ZM494.10828 242.607a61.36526 61.36526 0 0 1 10.825 5.03894 1.0308 1.0308 0 0 1-1.07776 1.75745l-.00537-.0033-.01148-.0072a63.914 63.914 0 0 0-10.374-5.10217.90132.90132 0 0 1 .64368-1.68372ZM512.77429 257.17694a7.63418 7.63418 0 0 1-.46606 3.39831 10.70537 10.70537 0 0 1-1.65845 2.84156 21.351 21.351 0 0 1-4.648 4.129 1.21306 1.21306 0 1 1-1.37939-1.99584l.01184-.00806.0177-.01184a19.07183 19.07183 0 0 0 4.18127-3.58008 6.41031 6.41031 0 0 0 1.707-4.56409l-.00061-.00744a1.12185 1.12185 0 0 1 2.23462-.20154ZM495.30139 272.99542c-3.68951 1.4801-7.44751 2.7345-11.233 3.86829a1.39527 1.39527 0 0 1-.8006-2.67322l.02234-.00647c3.74121-1.05737 7.44653-2.23206 11.05652-3.61585a1.30416 1.30416 0 0 1 .95471 2.42725ZM472.62958 279.91913l-11.54645 2.52612a1.57746 1.57746 0 0 1-.67426-3.082l.01569-.00342.06427-.01294 11.46948-2.32361.05872-.01184a1.48582 1.48582 0 0 1 .61255 2.90772ZM449.471 284.58258l-11.66461 1.79577a1.72455 1.72455 0 1 1-.52484-3.40893l.01623-.00256.03931-.00562 11.60144-1.673.04046-.00586a1.66834 1.66834 0 0 1 .492 3.30017ZM426.11133 287.90887l-11.72028 1.30994a1.81826 1.81826 0 0 1-.40387-3.614l.01441-.00158.03125-.00318 11.66729-1.21.03174-.00329a1.77125 1.77125 0 0 1 .37946 3.52209ZM402.65216 290.33246l-11.75012.935a1.91191 1.91191 0 1 1-.30335-3.81176l.0152-.00122.02735-.00183 11.70245-.83753.0274-.00195a1.86494 1.86494 0 0 1 .28107 3.71924ZM379.13763 292.00775l-11.77276.58337a1.9444 1.9444 0 1 1-.19251-3.884l.00513-.00024.02472-.0011 11.72461-.55.025-.0011a1.92881 1.92881 0 0 1 .18579 3.85315ZM355.58612 293.02655l-11.78088.29284a1.97546 1.97546 0 1 1-.09815-3.9497l.00525-.00012.02338-.00061 11.73474-.26063.02344-.00048a1.95989 1.95989 0 0 1 .09222 3.9187ZM332.02032 293.47345q-5.89278.03717-11.7857.00476a1.99338 1.99338 0 0 1 .01337-3.9867h11.75982a1.991 1.991 0 0 1 .01251 3.98194ZM308.44916 293.32867l-11.78345-.28808a1.96208 1.96208 0 0 1 .096-3.923l.01825.00037 11.73724.25586.02344.00049a1.9777 1.9777 0 0 1-.08618 3.95446ZM284.88593 292.61l-11.77466-.57849a1.93079 1.93079 0 0 1 .18951-3.85693l.01978.001 11.72644.5448.02478.00109a1.9465 1.9465 0 0 1-.18073 3.8888ZM261.34375 291.29791l-11.75586-.92773a1.87022 1.87022 0 0 1 .27924-3.73l.02832.00207 11.7077.83411.02734.002a1.91518 1.91518 0 1 1-.27215 3.82068ZM237.84521 289.26214l-11.726-1.30395a1.77595 1.77595 0 0 1 .37757-3.53174l.03253.00342 11.67309 1.20349.03125.00317a1.82321 1.82321 0 1 1-.374 3.6272ZM214.4198 286.43451 202.752 284.65106a1.67629 1.67629 0 0 1 .49091-3.31641l.04132.006 11.6037 1.66785.03918.00562a1.729 1.729 0 0 1-.49194 3.42273ZM191.13428 282.52325l-11.55207-2.51318a1.49254 1.49254 0 0 1 .61048-2.92188l.05969.012L191.728 279.41l.05584.01123a1.58475 1.58475 0 1 1-.62542 3.10718ZM168.135 276.973c-3.79016-1.12659-7.55335-2.37244-11.25-3.83936a1.30967 1.30967 0 0 1 .9494-2.44116c3.61884 1.37134 7.33008 2.53723 11.07666 3.58728a1.40145 1.40145 0 0 1-.75354 2.69971ZM146.14941 267.7525a22.59425 22.59425 0 0 1-4.70965-4.03333 11.01056 11.01056 0 0 1-1.74719-2.76635 7.70844 7.70844 0 0 1-.65027-3.35755 1.12629 1.12629 0 0 1 2.2511.07984 6.78315 6.78315 0 0 0 1.92791 4.52038 20.30494 20.30494 0 0 0 4.26117 3.51819l.01477.00952a1.21809 1.21809 0 1 1-1.33069 2.04065ZM146.59985 247.84088a59.40215 59.40215 0 0 1 10.7937-5.10657.9066.9066 0 0 1 .65979 1.68872l-.006.00244a61.93374 61.93374 0 0 0-10.331 5.1576l-.00708.00451a1.03463 1.03463 0 0 1-1.11993-1.74ZM168.67139 239.15814l11.46508-2.77844a.606.606 0 0 1 .30127 1.17383l-.03051.0083-11.31861 3.05053-.04223.01136a.75648.75648 0 0 1-.39374-1.46082ZM191.70276 234.1264l11.62616-1.86291a.304.304 0 0 1 .10437.599l-.00885.00158-11.552 2.15906-.01361.00256a.45637.45637 0 1 1-.16767-.89721ZM215.03162 230.75238l5.96527-.66785-5.93781.87134a.1027.1027 0 1 1-.032-.20288Z"></path>
  <path fill="#e59413" d="M498.45966,272.11376l-26.5409,7.7743-52.44729,15.3617-20.192,17.48489a1.42445,1.42445,0,0,1-1.76652.0794l-.05517-.044a1.42415,1.42415,0,0,1-.42906-1.65852l9.566-20.63555,3.42457-7.3907L497.88184,269.33a1.42642,1.42642,0,0,1,.57782,2.78378Zm0,0"></path>
  <path fill="#f9ae2b" d="M499.18793,271.61674l-.01435.018a1.42272,1.42272,0,0,1-.93966.525l-17.4575,2.16262-70.76221,8.76929L393.013,256.65325a1.42885,1.42885,0,0,1,1.40291-2.18574L498.227,269.32766l.04276.00467.07877.0144.08211.01878.07273.022.08858.03172.073.03145.00863.00688.06906.03512.07389.0419c.04665.02966.09152.06156.13557.09573a1.4503,1.4503,0,0,1,.1602.14966.92507.92507,0,0,1,.06508.07673.84682.84682,0,0,1,.06534.08617l.061.09735a.345.345,0,0,1,.03253.06293.053.053,0,0,1,.0123.02394l.03064.0653.01041.00831.02437.06127a1.38548,1.38548,0,0,1,.04688.16392.5769.5769,0,0,1,.01582.07808,1.36245,1.36245,0,0,1,.01672.25664,1.10714,1.10714,0,0,1-.00709.12087c-.00286.0347-.00846.06917-.01431.10366-.0056.03447-.017.08814-.02771.13265a1.15477,1.15477,0,0,1-.03661.11242,1.08771,1.08771,0,0,1-.05532.13373.79048.79048,0,0,0-.0413.07923,1.55294,1.55294,0,0,1-.12313.17358Zm0,0"></path>
  <g clip-path="url(#clip-path)">
    <path fill="#f9ae2b" d="M447.85055,338.23047a1.42389,1.42389,0,0,1-2.01892.24331,1.45662,1.45662,0,0,1-.30966-.34115l-28.91331-44.935,64.16776-18.87522,16.88087-4.94543a1.43939,1.43939,0,0,1,.5903-.04794c.03034.005.061.00951.09135.01666l.082.01986.07347.02137.08857.03172.07227.03111.00922.00736.06858.03572.074.04175q.07.0445.13486.0954a1.46117,1.46117,0,0,1,.16091.15.92344.92344,0,0,1,.06508.07673.81325.81325,0,0,1,.06522.08632l.06117.09721a.42321.42321,0,0,1,.033.06233.062.062,0,0,1,.01172.02467l.03062.06531.01042.00831.02436.06128a1.381,1.381,0,0,1,.047.16376.5582.5582,0,0,1,.01571.07823,1.351,1.351,0,0,1,.01672.25664c-.00074.04028-.00244.08054-.007.12072-.00251.03426-.00824.0686-.01384.10307s-.01748.08873-.02829.1334a1.12237,1.12237,0,0,1-.03662.11241,1.09762,1.09762,0,0,1-.05473.133.72135.72135,0,0,0-.0413.07924,1.506,1.506,0,0,1-.11553.176l-.01294.01622Zm0,0"></path>
    <path fill="#ce800d" d="M425.21265,306.56859l-26.5276,6.47515a1.42626,1.42626,0,0,1-1.227-.2706,1.3905,1.3905,0,0,1-.37648-.46086,1.42149,1.42149,0,0,1,.33251-1.73264L416.61045,293.199Zm0,0"></path>
  </g>
  <path fill="#ce800d" d="M416.60866,293.19759l8.604,13.371-3.86143.9424-6.85852-12.39808Zm0,0"></path>
</svg>
