<svg xmlns="http://www.w3.org/2000/svg" id="access-denied" viewBox="0 0 650 512">
  <circle cx="239.068" cy="149.642" r="82.339" fill="#dbe8ec"></circle>
  <line x1="185.297" x2="217.6" y1="122.789" y2="122.789" fill="none" stroke="#b9d4db" stroke-linecap="round" stroke-miterlimit="10" stroke-width="3"></line>
  <line x1="185.297" x2="217.6" y1="132.1" y2="132.1" fill="none" stroke="#b9d4db" stroke-linecap="round" stroke-miterlimit="10" stroke-width="3"></line>
  <line x1="185.297" x2="217.6" y1="141.41" y2="141.41" fill="none" stroke="#b9d4db" stroke-linecap="round" stroke-miterlimit="10" stroke-width="3"></line>
  <path fill="#dbe8ec" d="M608.90415,269.61283V251.42167a13.07945,13.07945,0,0,0-13.07945-13.07945h-46.166a13.07945,13.07945,0,0,1-13.07946-13.07945V207.0716a13.07945,13.07945,0,0,1,13.07946-13.07945h1.45764a13.07945,13.07945,0,0,0,13.07945-13.07945V162.72154a13.07945,13.07945,0,0,0-13.07945-13.07945H129.20918a13.07945,13.07945,0,0,0-13.07945,13.07945V180.9127a13.07945,13.07945,0,0,0,13.07945,13.07945h0a13.07945,13.07945,0,0,1,13.07945,13.07945v18.19117a13.07945,13.07945,0,0,1-13.07945,13.07945H78.6298a13.07945,13.07945,0,0,0-13.07945,13.07945v18.19116A13.07945,13.07945,0,0,0,78.6298,282.69228H98.47638a13.07945,13.07945,0,0,1,13.07945,13.07945V313.963a13.07945,13.07945,0,0,1-13.07945,13.07945h-.048A13.07945,13.07945,0,0,0,85.349,340.12189V358.313a13.07945,13.07945,0,0,0,13.07945,13.07945h2.87139a13.07945,13.07945,0,0,1,13.07945,13.07946v18.19124a13.07945,13.07945,0,0,1-13.07945,13.07946H54.1753A13.07945,13.07945,0,0,0,41.09585,428.822v18.19116A13.07945,13.07945,0,0,0,54.1753,460.09263h503.963a13.07945,13.07945,0,0,0,13.07945-13.07945V428.822a13.07945,13.07945,0,0,0-13.07945-13.07945H546.79779a13.07945,13.07945,0,0,1-13.07945-13.07946V384.47187a13.07945,13.07945,0,0,1,13.07945-13.07946h26.73986A13.07945,13.07945,0,0,0,586.6171,358.313V340.12189a13.07945,13.07945,0,0,0-13.07945-13.07946H565.426A13.07945,13.07945,0,0,1,552.34657,313.963V295.77173A13.07945,13.07945,0,0,1,565.426,282.69228H595.8247A13.07945,13.07945,0,0,0,608.90415,269.61283Z"></path>
  <rect width="269.073" height="394.56" x="208.484" y="51.907" fill="#3086a3" rx="9"></rect>
  <rect width="236.57" height="355.949" x="224.735" y="71.213" fill="#dbe8ec" rx="9"></rect>
  <circle cx="343.021" cy="168.219" r="44.343" fill="#f9ae2b"></circle>
  <path fill="#409cb5" d="M335.56974,164.35177v-9.22048a6.999,6.999,0,0,1,7.0644-6.99805h.76888a6.9964,6.9964,0,0,1,7.06443,6.99805v3.10612a.79621.79621,0,0,0,.78572.79l3.72023.01687a.79114.79114,0,0,0,.79417-.79v-2.609a12.175,12.175,0,0,0-12.19181-12.17812H342.4614a12.17681,12.17681,0,0,0-12.1876,12.17812v8.95294Zm0,0"></path>
  <path fill="#3086a3" d="M357.52761,190.86511a3.52247,3.52247,0,0,0,3.51376-3.51379v-19.984a3.52247,3.52247,0,0,0-3.51376-3.5138H328.51376A3.52247,3.52247,0,0,0,325,167.36734v19.984a3.52247,3.52247,0,0,0,3.51376,3.51379Zm0,0"></path>
  <path fill="#409cb5" d="M343.0207 170.70833a3.77743 3.77743 0 0 0-3.76449 3.76551 3.70467 3.70467 0 0 0 1.53047 2.88812v4.41855a2.234 2.234 0 0 0 4.46805 0V177.362a3.71759 3.71759 0 0 0 1.53039-2.88812 3.77736 3.77736 0 0 0-3.76442-3.76551ZM224.73561 377.52127v42.09916a7.54126 7.54126 0 0 0 7.54129 7.54128H453.76447a7.54126 7.54126 0 0 0 7.54129-7.54128V377.52127ZM461.30576 78.75435a7.54127 7.54127 0 0 0-7.54129-7.54129H232.2769a7.54127 7.54127 0 0 0-7.54129 7.54129V93.83692H461.30576Z"></path>
  <circle cx="343.021" cy="71.213" r="12.669" fill="#f9ae2b"></circle>
  <circle cx="343.021" cy="402.341" r="12.669" fill="#f9ae2b"></circle>
  <rect width="73" height="25.481" x="250.112" y="228.072" fill="#f9ae2b" rx="3"></rect>
  <rect width="88.686" height="117.1" x="347.847" y="228.072" fill="#ee781d" rx="3"></rect>
  <rect width="73" height="25.481" x="250.112" y="273.881" fill="#f9ae2b" rx="3"></rect>
  <rect width="73" height="25.481" x="250.112" y="319.691" fill="#f9ae2b" rx="3"></rect>
  <path fill="#f9ae2b" d="M392.18979,311.56321H366.63486a2.81032,2.81032,0,0,1-2.43381-4.21547l12.77747-22.13122L389.756,263.0853a2.8103,2.8103,0,0,1,4.8676,0l12.77747,22.13122,12.77747,22.13122a2.81031,2.81031,0,0,1-2.4338,4.21547Z"></path>
  <rect width="2.812" height="23.77" x="390.784" y="273.378" fill="#409cb5" rx="1.406"></rect>
  <circle cx="392.19" cy="303.385" r="3.363" fill="#409cb5" transform="rotate(-84.345 392.19 303.385)"></circle>
  <path fill="#ee781d" d="M174.05248,378.793V355.25809a17.8648,17.8648,0,0,1,18.03162-17.86227h1.96254a17.85805,17.85805,0,0,1,18.03169,17.86227v7.92825a2.0323,2.0323,0,0,0,2.00553,2.01636l9.49574.04308a2.01938,2.01938,0,0,0,2.0271-2.01636V356.57a31.07624,31.07624,0,0,0-31.11915-31.0842h-2.84436A31.08085,31.08085,0,0,0,160.53478,356.57v22.852Zm0,0"></path>
  <path fill="#f9ae2b" d="M230.09912,446.46735a8.991,8.991,0,0,0,8.96876-8.96884V386.49014a8.991,8.991,0,0,0-8.96876-8.96883H156.04236a8.991,8.991,0,0,0-8.96875,8.96883v51.00837a8.991,8.991,0,0,0,8.96875,8.96884Zm0,0"></path>
  <path fill="#ee781d" d="M193.07078,395.0179a9.64173,9.64173,0,0,0-9.60871,9.61134,9.45606,9.45606,0,0,0,3.90645,7.37182v11.27818a5.70227,5.70227,0,0,0,11.40453,0V412.00106a9.4891,9.4891,0,0,0,3.90628-7.37182,9.64159,9.64159,0,0,0-9.60855-9.61134Zm0,0"></path>
  <line x1="62.051" x2="94.354" y1="428.996" y2="428.996" fill="none" stroke="#b9d4db" stroke-linecap="round" stroke-miterlimit="10" stroke-width="3"></line>
  <line x1="62.051" x2="94.354" y1="438.306" y2="438.306" fill="none" stroke="#b9d4db" stroke-linecap="round" stroke-miterlimit="10" stroke-width="3"></line>
  <line x1="62.051" x2="94.354" y1="447.617" y2="447.617" fill="none" stroke="#b9d4db" stroke-linecap="round" stroke-miterlimit="10" stroke-width="3"></line>
  <line x1="492.833" x2="525.136" y1="284.036" y2="284.036" fill="none" stroke="#b9d4db" stroke-linecap="round" stroke-miterlimit="10" stroke-width="3"></line>
  <line x1="492.833" x2="525.136" y1="293.346" y2="293.346" fill="none" stroke="#b9d4db" stroke-linecap="round" stroke-miterlimit="10" stroke-width="3"></line>
  <line x1="492.833" x2="525.136" y1="302.657" y2="302.657" fill="none" stroke="#b9d4db" stroke-linecap="round" stroke-miterlimit="10" stroke-width="3"></line>
  <circle cx="136.379" cy="303.918" r="16.428" fill="#b9d4db"></circle>
  <circle cx="137.046" cy="270.423" r="8.557" fill="#b9d4db"></circle>
  <circle cx="194.04" cy="275.423" r="7.406" fill="#b9d4db"></circle>
  <circle cx="167.096" cy="268.226" r="4.936" fill="#b9d4db"></circle>
  <circle cx="172.833" cy="295.168" r="11.833" fill="#b9d4db"></circle>
  <circle cx="531.923" cy="425.872" r="16.428" fill="#b9d4db"></circle>
  <circle cx="497.151" cy="433.968" r="8.557" fill="#b9d4db"></circle>
  <circle cx="497.151" cy="399.329" r="11.833" fill="#b9d4db"></circle>
  <circle cx="533.263" cy="134.526" r="16.428" fill="#b9d4db"></circle>
  <circle cx="500.676" cy="150.954" r="7.406" fill="#b9d4db"></circle>
  <circle cx="491.597" cy="122.693" r="11.833" fill="#b9d4db"></circle>
</svg>
