<svg xmlns="http://www.w3.org/2000/svg" id="welcome-sign" viewBox="0 0 650 512">
  <path fill="#dbe8ec" d="M81.09582,276.29442v18.19116A13.07944,13.07944,0,0,0,94.17526,307.565l46.166,0a13.07945,13.07945,0,0,1,13.07945,13.07946l0,18.19116a13.07944,13.07944,0,0,1-13.07946,13.07944h-1.45764a13.07945,13.07945,0,0,0-13.07945,13.07945l0,18.19116a13.07945,13.07945,0,0,0,13.07945,13.07946l361.90714.00013a13.07944,13.07944,0,0,0,13.07946-13.07944V364.9947a13.07944,13.07944,0,0,0-13.07944-13.07945h0a13.07946,13.07946,0,0,1-13.07945-13.07946l0-18.19116a13.07945,13.07945,0,0,1,13.07945-13.07945l50.57941,0a13.07945,13.07945,0,0,0,13.07946-13.07945l0-18.19116a13.07947,13.07947,0,0,0-13.07945-13.07946H531.5236a13.07945,13.07945,0,0,1-13.07945-13.07946V231.94442A13.07945,13.07945,0,0,1,531.52361,218.865h.048A13.07947,13.07947,0,0,0,544.651,205.78553V187.59445A13.07944,13.07944,0,0,0,531.57159,174.515l-2.87139,0a13.07945,13.07945,0,0,1-13.07945-13.07945l0-18.19125a13.07945,13.07945,0,0,1,13.07945-13.07945l27.12451,0a13.07946,13.07946,0,0,0,13.07946-13.07945V98.89425a13.07945,13.07945,0,0,0-13.07944-13.07946l-423.963-.00016a13.07947,13.07947,0,0,0-13.07946,13.07945v18.19116a13.07945,13.07945,0,0,0,13.07945,13.07946h11.34052a13.07946,13.07946,0,0,1,13.07945,13.07946l0,18.19125a13.07944,13.07944,0,0,1-13.07945,13.07944l-26.73986,0a13.07946,13.07946,0,0,0-13.07946,13.07945v18.19108a13.07944,13.07944,0,0,0,13.07944,13.07945l8.11163,0a13.07945,13.07945,0,0,1,13.07945,13.07945l0,18.19125A13.07945,13.07945,0,0,1,124.574,263.215l-30.39867,0A13.07945,13.07945,0,0,0,81.09582,276.29442Z"></path>
  <rect width="39.787" height="18.665" x="428.645" y="142.877" fill="#b9d4db"></rect>
  <rect width="39.787" height="18.665" x="428.645" y="186.946" fill="#b9d4db"></rect>
  <rect width="39.787" height="18.665" x="406.752" y="164.906" fill="#b9d4db"></rect>
  <rect width="39.787" height="18.665" x="449.903" y="164.906" fill="#b9d4db"></rect>
  <rect width="39.787" height="18.665" x="173.545" y="124.212" fill="#b9d4db" transform="rotate(180 193.438 133.544)"></rect>
  <rect width="39.787" height="18.665" x="193.438" y="102.182" fill="#b9d4db" transform="rotate(180 213.331 111.514)"></rect>
  <rect width="39.787" height="18.665" x="150.287" y="102.182" fill="#b9d4db" transform="rotate(180 170.18 111.514)"></rect>
  <path fill="#e06714" d="M456.19877,326.6201c-5.47823-.27776-8.78325-6.6642-9.54541-8.13909a16.115,16.115,0,0,1-1.94035-7.0134c-.09167-3.11486.90735-3.7773.476-6.28094-.487-2.8265-2.02772-3.53441-3.62029-6.59143a20.88939,20.88939,0,0,1-2.08925-8.67258,25.00253,25.00253,0,0,1,2.71475-14.07628c9.22329-16.60418,14.5901-25.81031,14.5901-25.81031s13.25763,14.5644,15.3371,26.98988c.889,5.31222,1.97964,5.9077,1.41246,11.724-.2455,2.518-1.50429,3.73016-2.35179,6.87121-.34914,1.29395-.28908,1.92815-.22363,6.57475a33.2403,33.2403,0,0,1-.05395,7.96083,20.74107,20.74107,0,0,1-6.12,11.89561C462.561,324.19073,459.84285,326.80487,456.19877,326.6201Z"></path>
  <polygon fill="#ee781d" points="457.9 268.66 457.73 428.067 453.902 428.017 457.9 268.66"></polygon>
  <path fill="#f9ae2b" d="M480.72727,335.01749c-4.93394-1.31-6.71056-7.76214-7.11985-9.252a14.99743,14.99743,0,0,1-.41321-6.75962c.51761-2.85354,1.555-3.26387,1.64538-5.62649.10206-2.66729-1.16407-3.60911-2.02409-6.69961a19.441,19.441,0,0,1-.22861-8.29892,23.26889,23.26889,0,0,1,5.18782-12.2916c11.60118-13.33714,18.26375-20.68305,18.26375-20.68305s9.25969,15.81811,8.75521,27.53189c-.21567,5.00795.66234,5.76054-.97638,10.94641-.7094,2.24508-2.08934,3.10576-3.467,5.80192-.56756,1.11068-.63526,1.69967-1.47231,5.94269a30.93387,30.93387,0,0,1-1.58528,7.23735,19.30275,19.30275,0,0,1-7.86728,9.64916C486.9884,334.03341,484.00929,335.88889,480.72727,335.01749Z"></path>
  <polygon fill="#409cb5" points="493.461 282.577 459.789 434.696 455.32 433.638 493.461 282.577"></polygon>
  <path fill="#ee781d" d="M452.94344,379.84152c-3.85964-.1957-6.18816-4.69521-6.72514-5.73433a11.35374,11.35374,0,0,1-1.36706-4.94123c-.06458-2.19455.63927-2.66127.33537-4.42518-.34309-1.99139-1.42861-2.49014-2.55064-4.64394a14.71737,14.71737,0,0,1-1.472-6.11019,17.61531,17.61531,0,0,1,1.91265-9.91733c6.49819-11.69833,10.27933-18.18443,10.27933-18.18443s9.34055,10.26123,10.80563,19.01549c.62636,3.74268,1.39473,4.16222.99513,8.26-.173,1.774-1.05983,2.62805-1.65693,4.841-.246.91164-.20367,1.35847-.15756,4.63219a23.41927,23.41927,0,0,1-.038,5.60873,14.61288,14.61288,0,0,1-4.31181,8.38095C457.42589,378.12992,455.51084,379.97169,452.94344,379.84152Z"></path>
  <polygon fill="#409cb5" points="454.143 339.006 453.351 429.129 449.525 429.014 454.143 339.006"></polygon>
  <path fill="#409cb5" d="M467.29222,353.34147c-4.3617-.22115-6.99312-5.306-7.59994-6.48026a12.83042,12.83042,0,0,1-1.54489-5.584c-.073-2.48.72243-3.00745.379-5.00081-.38772-2.25043-1.61444-2.81406-2.88243-5.248a16.632,16.632,0,0,1-1.66343-6.905A19.90677,19.90677,0,0,1,456.142,312.916c7.34348-13.22006,11.61648-20.54987,11.61648-20.54987s10.55557,11.596,12.21122,21.489c.70784,4.22953,1.57617,4.70365,1.12459,9.33451-.19546,2.0048-1.1977,2.96991-1.87247,5.47078-.278,1.03022-.23017,1.53517-.17806,5.23474a26.46467,26.46467,0,0,1-.043,6.33832,16.51377,16.51377,0,0,1-4.87269,9.47115C472.35775,351.40723,470.1936,353.48857,467.29222,353.34147Z"></path>
  <path fill="#ee781d" d="M468.76185,307.19951l-.99209,30.70708-1.10684,30.70166c-.35961,10.23433-.58763,20.47482-1.22124,30.69624-.32484,5.11034-.6493,10.22068-1.0732,15.32616l-.63884,7.65841c-.25868,2.55049-.47436,5.10323-.77154,7.65186l-.22915-.01084c-.05532-2.56545-.02915-5.127-.046-7.69055l.08635-7.68439c.05981-5.12286.21906-10.241.37792-15.35924.33344-10.23544,1.07284-20.45182,1.68065-30.67437l1.795-30.66914,1.90941-30.66372Z"></path>
  <path fill="#f9ae2b" d="M439.66782,357.01129c-4.20355.31916-7.34227-4.22958-8.06628-5.28018a12.385,12.385,0,0,1-2.15906-5.159c-.37176-2.3659.32569-2.96777-.24581-4.83475-.6452-2.10775-1.88849-2.49814-3.39894-4.67448a16.05436,16.05436,0,0,1-2.43338-6.40954,19.21555,19.21555,0,0,1,.70551-10.99494c5.42266-13.553,8.62212-21.09194,8.62212-21.09194s11.51922,9.81909,14.30886,19.09081c1.19265,3.9639,2.08184,4.3122,2.21312,8.80154.05687,1.94353-.78536,2.98968-1.12708,5.46657-.14079,1.02035-.03353,1.49806.4667,5.03431a25.54566,25.54566,0,0,1,.73041,6.0746,15.94035,15.94035,0,0,1-3.51305,9.66241C444.283,354.54251,442.464,356.799,439.66782,357.01129Z"></path>
  <polygon fill="#ee781d" points="435.348 312.657 452.484 425.656 447.929 426.254 435.348 312.657"></polygon>
  <path fill="#e06714" d="M487.56553,358.30021c-4.42825-1.52306-5.6295-7.5434-5.906-8.93348a13.75762,13.75762,0,0,1,.06645-6.212c.66124-2.57687,1.63738-2.88409,1.87547-5.03986.26879-2.43378-.82776-3.37878-1.41141-6.263a17.83359,17.83359,0,0,1,.33657-7.60829,21.34515,21.34515,0,0,1,5.555-10.90526c11.49177-11.44016,18.07088-17.72331,18.07088-17.72331s7.43212,15.082,6.20023,25.76656c-.52665,4.56793.2272,5.31426-1.6132,9.95141-.79671,2.00753-2.11591,2.70427-3.55377,5.08058-.59233.97891-.693,1.51337-1.7379,5.34055a28.37775,28.37775,0,0,1-1.92642,6.5177,17.707,17.707,0,0,1-7.83284,8.31132C493.359,357.81154,490.51117,359.31334,487.56553,358.30021Z"></path>
  <polygon fill="#ee781d" points="502.665 311.156 467.725 428.654 464.074 427.506 502.665 311.156"></polygon>
  <path fill="#f9ae2b" d="M437.16017,395.18011c-2.83025.57262-5.34858-2.2537-5.92961-2.90656a8.48338,8.48338,0,0,1-1.90407-3.324c-.45288-1.57671-.02973-2.04483-.57616-3.2655-.6169-1.37809-1.495-1.53826-2.70586-2.88976a10.99686,10.99686,0,0,1-2.19634-4.15083,13.162,13.162,0,0,1-.45075-7.53321c2.53917-9.67112,4.076-15.06623,4.076-15.06623s8.6607,5.69961,11.34138,11.76578c1.14606,2.59345,1.77993,2.755,2.249,5.79537.2031,1.31625-.28087,2.0986-.30357,3.81112-.00936.70547.104,1.0211.74319,3.38244a17.49784,17.49784,0,0,1,1.01045,4.06726,10.91861,10.91861,0,0,1-1.57035,6.865C440.08831,393.11153,439.04283,394.79921,437.16017,395.18011Z"></path>
  <path fill="#409cb5" d="m430.5829 365.372 4.12572 16.32442 4.01359 16.34965c1.32328 5.4533 2.8402 10.86306 3.90181 16.37469 1.07582 5.50863 2.06006 11.03764 2.669 16.65075l-.22429.05027c-1.84287-5.33686-3.31007-10.75784-4.68606-16.19918-1.3902-5.43817-2.32472-10.97839-3.45325-16.47506l-3.3411-16.50011L430.359 365.42209ZM488.09848 385.6906c-4.01123-1.83169-4.5875-7.58377-4.71976-8.91183a12.95481 12.95481 0 0 1 .62934-5.816c.855-2.35474 1.79788-2.55357 2.21781-4.55228.47408-2.25646-.46736-3.24223-.75108-5.99872a16.7933 16.7933 0 0 1 1.01-7.09995 20.09987 20.09987 0 0 1 6.20178-9.7136c11.8147-9.673 18.55437-14.96111 18.55437-14.96111s5.5888 14.81367 3.45889 24.71506c-.91059 4.23311-.27218 5.0014-2.42036 9.17945-.93 1.80878-2.23 2.34136-3.79447 4.43724-.64451.86339-.78765 1.3551-2.11633 4.84666a26.72115 26.72115 0 0 1-2.40045 5.93269 16.674 16.674 0 0 1-8.09985 7.07455C493.57286 385.76147 490.76673 386.909 488.09848 385.6906Z"></path>
  <path fill="#ee781d" d="M506.659,342.93l-9.77024,23.77872-9.87566,23.73312c-3.306,7.90512-6.42913,15.88893-9.98106,23.68751-3.53848,7.80457-7.16293,15.57194-11.14063,23.1868l-.21082-.091c2.81665-8.11633,5.98692-16.07995,9.24317-24.00637,3.24241-7.93241,6.914-15.67941,10.40272-23.50547l10.50814-23.45987L506.44813,342.839Z"></path>
  <path fill="#f9ae2b" d="M490.26906,403.99964c-2.27773-1.98731-1.53244-5.87939-1.35985-6.77785a8.88079,8.88079,0,0,1,1.54994-3.6985c1.02188-1.38015,1.68028-1.32655,2.34674-2.55778.75241-1.39.32644-2.22167.67862-4.08829a11.512,11.512,0,0,1,2.05092-4.46777,13.77843,13.77843,0,0,1,5.973-5.17063c9.65306-4.0472,15.11473-6.20493,15.11473-6.20493s.77765,10.82554-2.55653,16.91519c-1.42544,2.60349-1.15609,3.233-3.384,5.55855-.96447,1.00677-1.92272,1.10269-3.36023,2.17412-.59219.44136-.78232.73648-2.33758,2.771a18.31736,18.31736,0,0,1-2.73648,3.42911,11.43,11.43,0,0,1-6.70444,3.06574C493.85222,405.11588,491.78418,405.32159,490.26906,403.99964Z"></path>
  <path fill="#409cb5" d="M510.84748,379.55319l-10.95521,13.80774-11.04306,13.73392c-3.69285,4.56832-7.2332,9.26411-11.13127,13.66028-3.88724,4.40553-7.84625,8.75124-12.10019,12.84968l-.17607-.14747c3.28429-4.91,6.86351-9.573,10.51487-14.17613,3.63978-4.61243,7.63766-8.92525,11.4834-13.36554l11.57163-13.2917,11.65984-13.21825Z"></path>
  <path fill="#f9ae2b" d="M194.17159,307.79875c6.40967-.325,10.27663-7.7973,11.16838-9.523a18.85482,18.85482,0,0,0,2.27027-8.20586c.10725-3.64447-1.06163-4.41955-.557-7.34887.56977-3.30708,2.37249-4.13536,4.23583-7.71215a24.44126,24.44126,0,0,0,2.44449-10.14716,29.25372,29.25372,0,0,0-3.17633-16.46963c-10.7915-19.42735-17.07082-30.19877-17.07082-30.19877s-15.51178,17.04075-17.94483,31.5789c-1.04019,6.21544-2.31622,6.91217-1.65261,13.71739.28724,2.94612,1.76006,4.36438,2.75166,8.03949.4085,1.514.33823,2.256.26166,7.69264a38.89062,38.89062,0,0,0,.06311,9.31439c.90475,7.72535,6.15287,12.949,7.16059,13.91819C186.72761,304.95632,189.90791,308.01493,194.17159,307.79875Z"></path>
  <polygon fill="#e06714" points="192.181 239.984 192.38 426.494 196.859 426.436 192.181 239.984"></polygon>
  <path fill="#f9ae2b" d="M165.47257,317.62393c5.77284-1.53273,7.85154-9.08192,8.33042-10.82509a17.54745,17.54745,0,0,0,.48346-7.90893c-.60561-3.33873-1.81936-3.81882-1.92513-6.58315-.11942-3.1208,1.362-4.22276,2.36824-7.83873a22.74631,22.74631,0,0,0,.26747-9.71,27.225,27.225,0,0,0-6.06989-14.3815c-13.57369-15.60482-21.36908-24.19974-21.36908-24.19974s-10.83409,18.50763-10.24384,32.21306c.25235,5.85944-.775,6.74,1.1424,12.8076.83,2.62681,2.44458,3.63382,4.05653,6.78841.66406,1.29952.74327,1.98866,1.72264,6.95311a36.19375,36.19375,0,0,0,1.85482,8.4679,22.58473,22.58473,0,0,0,9.20493,11.28977C158.14688,316.47253,161.63252,318.64349,165.47257,317.62393Z"></path>
  <polygon fill="#409cb5" points="150.574 256.267 189.971 434.251 195.2 433.012 150.574 256.267"></polygon>
  <path fill="#f9ae2b" d="M197.98041,370.06926c4.51588-.229,7.24032-5.49352,7.86859-6.70932a13.284,13.284,0,0,0,1.5995-5.78137c.07556-2.56768-.748-3.11376-.39239-5.17758.40142-2.33,1.67151-2.91354,2.98432-5.43353a17.22,17.22,0,0,0,1.72224-7.1491,20.61046,20.61046,0,0,0-2.23786-11.60354c-7.60306-13.68737-12.0271-21.27628-12.0271-21.27628s-10.92869,12.00591-12.64287,22.24864c-.73286,4.379-1.63188,4.86991-1.16434,9.66447.20237,2.07567,1.24,3.07489,1.93866,5.66416.28781,1.06664.2383,1.58944.18435,5.41978a27.40027,27.40027,0,0,0,.04447,6.56238,17.09756,17.09756,0,0,0,5.04493,9.80594C192.73582,368.06665,194.97648,370.22157,197.98041,370.06926Z"></path>
  <polygon fill="#409cb5" points="196.577 322.291 197.504 427.737 201.98 427.602 196.577 322.291"></polygon>
  <path fill="#409cb5" d="M181.19194,339.06348c5.10331-.25875,8.18214-6.20812,8.89215-7.58207a15.01224,15.01224,0,0,0,1.80756-6.53342c.08539-2.90169-.84526-3.51879-.44344-5.85108.45365-2.63306,1.889-3.29253,3.37252-6.14033a19.45972,19.45972,0,0,0,1.94627-8.079,23.29151,23.29151,0,0,0-2.529-13.11294c-8.59207-15.46782-13.59159-24.04391-13.59159-24.04391s-12.35031,13.56765-14.28747,25.14276c-.82819,4.94867-1.84415,5.50339-1.31579,10.92163.22869,2.34567,1.40134,3.47487,2.19083,6.40095.32525,1.2054.2693,1.7962.20834,6.1248a30.96394,30.96394,0,0,0,.05025,7.416,19.3216,19.3216,0,0,0,5.70118,11.08151C175.26514,336.80037,177.79726,339.2356,181.19194,339.06348Z"></path>
  <path fill="#ee781d" d="M179.47243,285.07613l1.16077,35.92813,1.29505,35.92177c.42074,11.97444.68754,23.95609,1.42887,35.91544.38007,5.97924.75971,11.95847,1.25568,17.932l.74746,8.96055c.30266,2.98415.555,5.97093.90273,8.95289l.2681-.01268c.06473-3.00165.03412-5.9987.0538-8.99816l-.101-8.99094c-.07-5.99389-.2563-11.98231-.44218-17.97073-.39013-11.97575-1.25524-23.9292-1.9664-35.88985l-2.10023-35.88373L179.741,285.06345Z"></path>
  <path fill="#f9ae2b" d="M213.51324,343.35727c4.91827.37343,8.59066-4.94873,9.43778-6.178a14.49085,14.49085,0,0,0,2.52615-6.03617c.435-2.76817-.38107-3.47238.28761-5.6568.7549-2.46611,2.20958-2.92288,3.97685-5.46926a18.78407,18.78407,0,0,0,2.84712-7.49934,22.48273,22.48273,0,0,0-.82546-12.86437c-6.34467-15.85739-10.08812-24.67816-10.08812-24.67816s-13.47781,11.48861-16.74176,22.33677c-1.39543,4.63788-2.43581,5.0454-2.58941,10.29805-.06654,2.274.9189,3.498,1.31872,6.396.16472,1.19384.03923,1.75276-.54606,5.89027a29.88951,29.88951,0,0,0-.8546,7.10745,18.65067,18.65067,0,0,0,4.11037,11.30529C208.1134,340.46874,210.24164,343.10887,213.51324,343.35727Z"></path>
  <polygon fill="#ee781d" points="218.568 291.462 198.518 423.674 203.847 424.373 218.568 291.462"></polygon>
  <path fill="#ee781d" d="M157.47162,344.86535c5.18117-1.782,6.58667-8.826,6.9102-10.45243a16.09684,16.09684,0,0,0-.07774-7.26822c-.77368-3.015-1.91579-3.37446-2.19435-5.89677-.31449-2.84758.96849-3.95325,1.65138-7.32793a20.86573,20.86573,0,0,0-.3938-8.90189,24.9743,24.9743,0,0,0-6.49949-12.75946c-13.44568-13.3853-21.14341-20.73675-21.14341-20.73675s-8.69578,17.64634-7.25445,30.14757c.61621,5.3446-.26583,6.21783,1.88749,11.64342.93217,2.34886,2.47568,3.16408,4.158,5.94442.693,1.14535.81084,1.77068,2.0334,6.24859a33.2012,33.2012,0,0,0,2.254,7.62589,20.71767,20.71767,0,0,0,9.16465,9.72446C150.69312,344.29359,154.02514,346.05073,157.47162,344.86535Z"></path>
  <polygon fill="#f9ae2b" points="139.805 289.706 180.685 427.182 184.957 425.838 139.805 289.706"></polygon>
  <path fill="#e06714" d="M216.44726,388.01584c3.31147.67,6.258-2.6369,6.93781-3.40076a9.92577,9.92577,0,0,0,2.22781-3.88919c.52988-1.84479.03478-2.3925.67413-3.82072.72179-1.6124,1.74921-1.7998,3.16592-3.3811a12.86661,12.86661,0,0,0,2.56979-4.85658,15.4,15.4,0,0,0,.52738-8.81407c-2.9709-11.31547-4.76908-17.62789-4.76908-17.62789s-10.13325,6.6687-13.26972,13.76629c-1.34092,3.0344-2.08257,3.22337-2.63141,6.78073-.23763,1.54.32863,2.45543.35518,4.45911.011.82542-.12163,1.19472-.86955,3.95756a20.47346,20.47346,0,0,0-1.18226,4.7588,12.77512,12.77512,0,0,0,1.83736,8.03225C213.02126,385.59554,214.2445,387.57017,216.44726,388.01584Z"></path>
  <path fill="#f9ae2b" d="M224.14285,353.13953l-4.82721,19.1-4.696,19.12954c-1.54828,6.38052-3.32311,12.71008-4.56523,19.15883-1.25874,6.44525-2.41033,12.91434-3.1228,19.48183l.26242.05883c2.15622-6.24428,3.87288-12.587,5.48283-18.95349,1.62656-6.36281,2.72-12.845,4.04039-19.27627l3.90918-19.30557,3.77841-19.3351Z"></path>
  <path fill="#409cb5" d="M156.84805,376.91285c4.69325-2.14313,5.3675-8.87322,5.52225-10.42708a15.15761,15.15761,0,0,0-.73634-6.80487c-1.00034-2.75511-2.10357-2.98774-2.5949-5.32629-.55469-2.64012.54682-3.7935.87879-7.01866a19.64847,19.64847,0,0,0-1.18171-8.30714,23.51733,23.51733,0,0,0-7.25624-11.36517c-13.82353-11.31764-21.70912-17.50491-21.70912-17.50491s-6.539,17.33241-4.047,28.9173c1.06541,4.95285.31846,5.85178,2.83189,10.7402,1.08807,2.11632,2.6091,2.73946,4.43963,5.1917.7541,1.01018.92158,1.5855,2.47616,5.67071a31.265,31.265,0,0,0,2.8086,6.94142,19.509,19.509,0,0,0,9.47705,8.27741C150.44288,376.99577,153.72613,378.33844,156.84805,376.91285Z"></path>
  <path fill="#ee781d" d="M135.13179,326.8818l11.43145,27.82176L158.118,382.472c3.86807,9.24921,7.52226,18.59048,11.67812,27.715,4.14011,9.13155,8.38082,18.21959,13.03483,27.12918l.24668-.1065c-3.29556-9.49632-7.00486-18.814-10.81476-28.08811-3.79372-9.28113-8.08953-18.34533-12.17147-27.502l-12.29481-27.44868-12.41815-27.39553Z"></path>
  <path fill="#f9ae2b" d="M154.30842,398.33492c2.665-2.32521,1.793-6.879,1.591-7.93027a10.39054,10.39054,0,0,0-1.81347-4.32734c-1.19562-1.61482-1.966-1.55211-2.74574-2.99267-.88034-1.62634-.38195-2.59942-.794-4.78342a13.46918,13.46918,0,0,0-2.39964-5.22741,16.12109,16.12109,0,0,0-6.98852-6.04978c-11.29434-4.73533-17.68464-7.25994-17.68464-7.25994s-.90987,12.66618,2.9912,19.79124c1.66781,3.04616,1.35267,3.78276,3.95932,6.50365,1.12846,1.17795,2.24963,1.29019,3.93156,2.54378.69288.51641.91534.8617,2.735,3.24218a21.43175,21.43175,0,0,0,3.20176,4.01216,13.37338,13.37338,0,0,0,7.84438,3.587C150.116,399.64095,152.53568,399.88164,154.30842,398.33492Z"></path>
  <path fill="#409cb5" d="M130.2311,369.7319l12.8179,16.15545,12.92068,16.06906c4.32074,5.34505,8.463,10.83925,13.02389,15.9829,4.54818,5.15458,9.18032,10.23918,14.15755,15.03447l.206-.17254c-3.8427-5.74481-8.03048-11.20074-12.30268-16.58647-4.25863-5.39666-8.93627-10.44278-13.43589-15.638l-13.53912-15.55165L130.4371,369.55936Z"></path>
  <rect width="405" height="15.12" x="124.269" y="424.64" fill="#4469a0"></rect>
  <path fill="#e06714" d="M382.749,424.64V146.71992a89.27993,89.27993,0,0,0-89.27991-89.28h-.00024a89.27991,89.27991,0,0,0-89.27979,89.28V424.64Z"></path>
  <path fill="#ee781d" d="M433.149,441.92l-178.56,40V119.35991A89.27991,89.27991,0,0,1,343.86894,30.08h.00018A89.27991,89.27991,0,0,1,433.149,119.35991Z"></path>
  <circle cx="279.789" cy="281.36" r="13.68" fill="#f9ae2b"></circle>
  <circle cx="343.869" cy="158.96" r="7.92" fill="#f9ae2b"></circle>
  <path fill="#f9ae2b" d="M284.749,311.42c0,2.187-2.773,7.96-4.96,7.96s-4.96-5.77295-4.96-7.96,2.773-3.96,4.96-3.96S284.749,309.233,284.749,311.42Z"></path>
</svg>
